<svg xmlns="http://www.w3.org/2000/svg" width="200" height="40" viewBox="0 0 200 40">
    <defs>
        <style>
            .cls-1{fill:none}.cls-2{fill:#fff}
        </style>
    </defs>
    <g id="logo" transform="translate(-39 -334)">
        <path id="Rectangle_130" d="M0 0h200v40H0z" class="cls-1" data-name="Rectangle 130" transform="translate(39 334)"/>
        <g id="Groupe_221" data-name="Groupe 221">
            <path id="Tracé_555" d="M59.5 356.862h-8.933a3.181 3.181 0 0 0 3.479 2.712 3.6 3.6 0 0 0 3.145-1.584l1.872.936a5.869 5.869 0 1 1-5.136-8.857 5.452 5.452 0 0 1 5.616 5.785c0 .312-.024.646-.043 1.008zm-2.3-1.9a3.006 3.006 0 0 0-3.24-2.712 3.12 3.12 0 0 0-3.36 2.712z" class="cls-2" data-name="Tracé 555"/>
            <path id="Tracé_556" d="M73.847 344.236v17.283H71.5v-1.681a4.47 4.47 0 0 1-3.865 1.921 5.852 5.852 0 0 1-.024-11.69 4.407 4.407 0 0 1 3.889 1.9v-7.73zm-2.376 11.642a3.547 3.547 0 0 0-3.576-3.576 3.446 3.446 0 0 0-3.48 3.576 3.53 3.53 0 1 0 7.056 0z" class="cls-2" data-name="Tracé 556"/>
            <path id="Tracé_557" d="M85.27 350.478l-.407 2.232a3.977 3.977 0 0 0-1.656-.384c-2.04 0-3 2.136-3 5.16v4.033H77.83V350.31h2.376v2.52c.576-1.969 1.7-2.761 3.144-2.761a4.307 4.307 0 0 1 1.92.409z" class="cls-2" data-name="Tracé 557"/>
            <path id="Tracé_558" d="M98.086 356.862h-8.928a3.183 3.183 0 0 0 3.48 2.712 3.6 3.6 0 0 0 3.145-1.584l1.872.936a5.869 5.869 0 1 1-5.137-8.857 5.452 5.452 0 0 1 5.616 5.785c0 .312-.023.646-.048 1.008zm-2.3-1.9a3.006 3.006 0 0 0-3.241-2.712 3.12 3.12 0 0 0-3.36 2.712z" class="cls-2" data-name="Tracé 558"/>
            <path id="Tracé_559" d="M112.438 350.31v11.209h-2.352v-1.681a4.467 4.467 0 0 1-3.864 1.921 5.852 5.852 0 0 1-.024-11.69 4.4 4.4 0 0 1 3.888 1.9v-1.659zm-2.376 5.568a3.548 3.548 0 0 0-3.576-3.576 3.447 3.447 0 0 0-3.486 3.576 3.53 3.53 0 1 0 7.057 0z" class="cls-2" data-name="Tracé 559"/>
            <path id="Tracé_560" d="M134.111 355.109v6.41h-2.376v-6.242c0-1.847-.96-2.927-2.473-2.927a2.759 2.759 0 0 0-2.807 2.784v6.385h-2.376v-6.265c0-1.848-.961-2.9-2.353-2.9a2.852 2.852 0 0 0-2.952 3.168v6h-2.353V350.31h2.353v1.776a3.705 3.705 0 0 1 3.5-2.017 3.869 3.869 0 0 1 3.648 2.257 4.205 4.205 0 0 1 3.865-2.257c2.813 0 4.324 1.849 4.324 5.04z" class="cls-2" data-name="Tracé 560"/>
            <path id="Tracé_561" d="M137.133 358.11h2.184c0 .888.792 1.657 2.064 1.657 1.3 0 2.088-.6 2.088-1.441 0-.744-.6-1.128-1.44-1.32l-1.512-.36c-2.088-.552-3.048-1.632-3.048-3.289 0-1.824 1.656-3.288 3.985-3.288 1.92 0 3.984 1.009 3.984 3.361h-2.257a1.56 1.56 0 0 0-1.68-1.368 1.483 1.483 0 0 0-1.656 1.368c0 .7.648 1.08 1.344 1.248l1.7.408c2.4.6 2.929 2.088 2.929 3.289 0 2.135-2.113 3.384-4.417 3.384-2.084 0-4.22-1.321-4.268-3.649z" class="cls-2" data-name="Tracé 561"/>
            <path id="Tracé_562" d="M152.375 349.014v1.3h2.567v1.967h-2.567v9.242h-2.353v-9.242h-2.16v-1.971h2.16v-1.033c0-3.048 1.32-5.041 4.368-5.041h1.248v2.233h-.815c-1.945 0-2.473 1.131-2.448 2.545z" class="cls-2" data-name="Tracé 562"/>
            <path id="Tracé_563" d="M168.5 350.31v11.209h-2.351v-1.681a4.469 4.469 0 0 1-3.864 1.921 5.852 5.852 0 0 1-.025-11.69 4.406 4.406 0 0 1 3.889 1.9v-1.659zm-2.376 5.568a3.547 3.547 0 0 0-3.576-3.576 3.446 3.446 0 0 0-3.48 3.576 3.53 3.53 0 1 0 7.056 0z" class="cls-2" data-name="Tracé 563"/>
            <path id="Tracé_564" d="M171.765 355.9a5.8 5.8 0 0 1 6.049-5.833 5.618 5.618 0 0 1 4.368 1.921l-1.56 1.463a3.685 3.685 0 0 0-2.76-1.176 3.626 3.626 0 1 0 0 7.249 3.682 3.682 0 0 0 2.76-1.176l1.56 1.464a5.621 5.621 0 0 1-4.368 1.92 5.8 5.8 0 0 1-6.049-5.832z" class="cls-2" data-name="Tracé 564"/>
            <path id="Tracé_565" d="M190.893 352.277h-2.4v9.242h-2.352v-9.242h-2.016v-1.967h2.016v-4.2h2.352v4.2h2.4z" class="cls-2" data-name="Tracé 565"/>
            <path id="Tracé_566" d="M216.281 350.478l-.407 2.232a3.981 3.981 0 0 0-1.657-.384c-2.04 0-3 2.136-3 5.16v4.033h-2.377V350.31h2.376v2.52c.576-1.969 1.7-2.761 3.145-2.761a4.314 4.314 0 0 1 1.92.409z" class="cls-2" data-name="Tracé 566"/>
            <path id="Tracé_567" d="M229.858 350.31l-6.958 16.657h-2.5l2.4-5.928-4.465-10.729h2.544l3.217 7.8 3.216-7.8z" class="cls-2" data-name="Tracé 567"/>
        </g>
        <g id="Groupe_222" data-name="Groupe 222">
            <circle id="Ellipse_45" cx="1.5" cy="1.5" r="1.5" class="cls-2" data-name="Ellipse 45" transform="translate(197.5 354.207)"/>
            <path id="Tracé_568" d="M205.293 363l-.293-.293v-7a6.006 6.006 0 0 0-5-5.91v-1.09a1 1 0 0 0-2 0v1.09a6.006 6.006 0 0 0-5 5.91v7l-.293.293a1 1 0 0 0 0 1.414l.586.586a1 1 0 0 0 1.414 0l.586-.586a1 1 0 0 0 0-1.414l-.293-.293v-2.54a5.979 5.979 0 0 0 3 1.45v4.09l-.293.293a1 1 0 0 0 0 1.414l.586.586a1 1 0 0 0 1.414 0l.586-.586a1 1 0 0 0 0-1.414l-.293-.293v-4.09a5.979 5.979 0 0 0 3-1.45v2.54l-.293.293a1 1 0 0 0 0 1.414l.586.586a1 1 0 0 0 1.414 0l.586-.586a1 1 0 0 0 0-1.414zM199 359.707a4 4 0 1 1 4-4 4 4 0 0 1-4 4z" class="cls-2" data-name="Tracé 568"/>
        </g>
    </g>
</svg>
